# xmcd
#
# Track frame offsets:
#	150
#	16786
#	39811
#	53177
#	74351
#	97962
#	117809
#	147407
#	169219
#	205151
#	223674
#
# Disc length: 3482 seconds
#
# Revision: 1
# Processed by: cddbd v1.5.2PL0 Copyright (c) Steve Scherf et al.
# Submitted via: audiograbber 1.83.01
#
DISCID=950d980b
DTITLE=VARGAS BLUES BAND - Flamenco Blues Experience
DYEAR=2008
DGENRE=Blues
TTITLE0=Walking The Streets
TTITLE1=Blues In My Soul
TTITLE2=Ya Ya Ya Looking For My Baby
TTITLE3=Beautiful Woman
TTITLE4=Blues Para Lucia
TTITLE5=No Pasa Nada
TTITLE6=Terra Del Vino
TTITLE7=Bluesvision
TTITLE8=Blues De Los Colores
TTITLE9=Mojo Hand
TTITLE10=Your Love Is A Jaig
EXTD=
EXTT0=
EXTT1=
EXTT2=
EXTT3=
EXTT4=
EXTT5=
EXTT6=
EXTT7=
EXTT8=
EXTT9=
EXTT10=
PLAYORDER=
